<?xml version="1.0" standalone="no"?>
<!DOCTYPE svg PUBLIC "-//W3C//DTD SVG 20010904//EN"
 "http://www.w3.org/TR/2001/REC-SVG-20010904/DTD/svg10.dtd">
<svg version="1.0" xmlns="http://www.w3.org/2000/svg"
 width="500.000000pt" height="500.000000pt" viewBox="0 0 500.000000 500.000000"
 preserveAspectRatio="xMidYMid meet">

<g transform="translate(0.000000,500.000000) scale(0.100000,-0.100000)"
fill="#000000" stroke="none">
<path d="M2300 4489 c-437 -44 -852 -235 -1174 -540 -680 -642 -821 -1678
-338 -2479 47 -77 157 -229 212 -290 l31 -35 -2 410 c-1 226 -1 699 -1 1053
l2 642 320 0 c294 0 320 -1 328 -17 5 -10 56 -197 113 -415 57 -218 106 -394
109 -392 3 3 52 189 110 412 l106 407 197 3 c108 1 197 -1 197 -6 0 -5 -14
-21 -31 -38 -47 -44 -87 -107 -116 -181 -24 -61 -27 -82 -27 -203 -1 -160 14
-220 81 -317 l43 -63 -82 0 -81 0 7 -136 c11 -218 49 -331 146 -438 l52 -56
-106 0 -106 0 0 348 c0 230 5 392 14 482 8 74 14 136 12 137 -1 1 -56 -194
-121 -435 -65 -240 -124 -458 -132 -485 l-14 -47 -182 2 -182 3 -130 473 c-71
260 -131 468 -133 463 -2 -5 2 -43 9 -83 9 -53 13 -321 16 -971 l4 -898 32
-20 c18 -11 82 -44 142 -74 479 -234 1017 -267 1524 -94 448 154 823 460 1071
873 51 85 150 293 150 316 0 7 -97 10 -295 10 l-295 0 0 163 -1 162 -18 -47
c-86 -219 -360 -331 -726 -298 -286 25 -458 107 -532 253 -27 54 -53 160 -53
220 l0 37 219 0 218 0 5 -45 c11 -97 58 -127 206 -133 158 -7 222 19 222 89 0
36 -45 73 -112 93 -29 8 -115 29 -190 46 -263 60 -366 106 -452 202 -100 111
-121 303 -50 453 50 107 194 201 369 242 117 27 380 24 486 -5 231 -63 364
-194 377 -372 l5 -70 -217 0 -216 0 0 24 c0 34 -40 88 -80 108 -40 21 -171 25
-217 7 -66 -25 -91 -79 -58 -126 18 -26 102 -54 260 -88 174 -37 292 -72 358
-107 72 -39 147 -112 178 -175 21 -43 24 -61 24 -170 l0 -123 341 0 342 0 5
27 c3 16 12 94 18 176 50 586 -181 1185 -617 1596 -423 401 -998 598 -1574
540z m-620 -1069 c0 -20 -5 -20 -327 -18 -303 3 -328 4 -331 21 -3 16 18 17
327 17 325 0 331 0 331 -20z"/>
</g>
</svg>
